<?xml version="1.0" encoding="UTF-8" standalone="no"?>
<svg width="611px" height="201px" viewBox="0 0 611 201" version="1.1" xmlns="http://www.w3.org/2000/svg" xmlns:xlink="http://www.w3.org/1999/xlink" xmlns:sketch="http://www.bohemiancoding.com/sketch/ns">
    <!-- Generator: Sketch 3.3.2 (12043) - http://www.bohemiancoding.com/sketch -->
    <title>Slice 1</title>
    <desc>Created with Sketch.</desc>
    <defs></defs>
    <g id="Page-1" stroke="none" stroke-width="1" fill="none" fill-rule="evenodd" sketch:type="MSPage">
        <g id="logo-light" sketch:type="MSLayerGroup">
            <g id="Page-1">
                <g id="logo-light">
                    <g id="Page-1">
                        <g id="logo-light" sketch:type="MSShapeGroup">
                            <g id="Group">
                                <g id="Shape">
                                    <path d="M27.1,200.4 L49.7,200.4 C55.1,200.4 61.7,196.6 64.5,192 L83.6,160.3 C85.9,155.6 85.8,148.9 83.2,144.6 L71.9,126 L27.1,200.4 L27.1,200.4 Z" fill="#F6C25B"></path>
                                    <path d="M51.4,108.8 L1.1,193 C-0.8,197.1 1.2,200.5 6.2,200.5 L27.1,200.5 L71.9,126.1 L51.4,92.2 C54.2,96.6 54.2,104.2 51.4,108.8" fill="#0A985C"></path>
                                    <path d="M6.1,0.4 C0.7,0.4 -1.4,4.2 1.4,8.8 L83.2,144.6 C85.8,148.9 85.8,155.7 83.6,160.3 L103.5,127.2 L27.2,0.4 L6.1,0.4 L6.1,0.4 Z" fill="#5586C5"></path>
                                    <path d="M27.1,0.4 L103.4,127.2 L114.5,108.8 C117.3,104.2 117.3,96.7 114.5,92.1 L64.5,8.8 C61.7,4.2 55.1,0.4 49.7,0.4 L27.1,0.4 L27.1,0.4 Z" fill="#D9423E"></path>
                                </g>
                                <g id="Shape" transform="translate(159.000000, 34.000000)" fill="#E6E6E5">
                                    <g id="Group" transform="translate(7.000000, 78.000000)">
                                        <path d="M32.3,48.2 L0.3,48.2 L0.3,42.4 L12.5,30.1 C16.1,26.4 18.5,23.8 19.7,22.3 C20.9,20.8 21.7,19.3 22.3,18 C22.8,16.6 23.1,15.2 23.1,13.6 C23.1,11.5 22.5,9.8 21.2,8.6 C19.9,7.4 18.1,6.8 15.9,6.8 C14.1,6.8 12.3,7.1 10.6,7.8 C8.9,8.5 7,9.7 4.7,11.4 L0.6,6.4 C3.2,4.2 5.8,2.6 8.3,1.7 C10.8,0.8 13.4,0.3 16.2,0.3 C20.6,0.3 24.1,1.4 26.8,3.7 C29.5,6 30.8,9.1 30.8,13 C30.8,15.1 30.4,17.2 29.7,19.1 C28.9,21 27.8,23 26.2,25 C24.6,27 22,29.8 18.3,33.3 L10.1,41.3 L10.1,41.6 L32.5,41.6 L32.3,48.2 L32.3,48.2 Z" id="Shape"></path>
                                        <path d="M70.1,24.5 C70.1,32.7 68.8,38.8 66.1,42.8 C63.4,46.8 59.4,48.8 54,48.8 C48.7,48.8 44.8,46.7 42,42.6 C39.3,38.5 37.9,32.4 37.9,24.5 C37.9,16.2 39.2,10 41.9,6.1 C44.5,2.1 48.6,0.2 54,0.2 C59.3,0.2 63.3,2.3 66,6.4 C68.7,10.5 70.1,16.5 70.1,24.5 L70.1,24.5 L70.1,24.5 Z M45.7,24.5 C45.7,30.9 46.4,35.5 47.7,38.3 C49,41.1 51.1,42.4 54.1,42.4 C57,42.4 59.1,41 60.5,38.2 C61.8,35.4 62.5,30.8 62.5,24.5 C62.5,18.2 61.8,13.6 60.5,10.7 C59.2,7.9 57,6.4 54.1,6.4 C51.2,6.4 49.1,7.8 47.7,10.6 C46.3,13.5 45.7,18.1 45.7,24.5 L45.7,24.5 L45.7,24.5 Z" id="Shape"></path>
                                        <path d="M98.1,48.2 L90.5,48.2 L90.5,17.7 C90.5,14.1 90.6,11.2 90.8,9 C90.3,9.5 89.7,10.1 89,10.7 C88.3,11.3 85.9,13.3 81.7,16.6 L77.9,11.8 L91.8,0.9 L98.1,0.9 L98.1,48.2 L98.1,48.2 Z" id="Shape"></path>
                                        <path d="M129.7,18.6 C134.5,18.6 138.2,19.9 141,22.4 C143.8,24.9 145.2,28.4 145.2,32.7 C145.2,37.7 143.6,41.7 140.5,44.5 C137.3,47.3 132.9,48.8 127,48.8 C121.7,48.8 117.6,47.9 114.5,46.2 L114.5,39.3 C116.2,40.3 118.3,41.1 120.5,41.6 C122.8,42.1 124.9,42.4 126.8,42.4 C130.2,42.4 132.8,41.6 134.6,40.1 C136.4,38.6 137.3,36.3 137.3,33.4 C137.3,27.8 133.7,24.9 126.5,24.9 C125.5,24.9 124.2,25 122.8,25.2 C121.3,25.4 120,25.6 118.9,25.9 L115.5,23.9 L117.3,0.8 L141.9,0.8 L141.9,7.6 L124,7.6 L122.9,19.3 C123.7,19.2 124.6,19 125.7,18.8 C126.8,18.7 128.1,18.6 129.7,18.6 L129.7,18.6 L129.7,18.6 Z" id="Shape"></path>
                                    </g>
                                    <g id="Group" transform="translate(180.000000, 0.000000)">
                                        <path d="M45.4,26.4 C45.4,35.3 43,42.2 38.1,47 C33.2,51.8 26.4,54.2 17.5,54.2 L0.3,54.2 L0.3,0.8 L18.7,0.8 C27.2,0.8 33.8,3 38.4,7.4 C43.1,11.8 45.4,18.2 45.4,26.4 L45.4,26.4 L45.4,26.4 Z M30.5,27 C30.5,22.1 29.5,18.5 27.6,16.1 C25.7,13.7 22.8,12.6 18.8,12.6 L14.6,12.6 L14.6,42.5 L17.8,42.5 C22.2,42.5 25.4,41.2 27.4,38.7 C29.5,36.1 30.5,32.2 30.5,27 L30.5,27 L30.5,27 Z" id="Shape"></path>
                                        <path d="M69.5,55 C62.6,55 57.3,53.2 53.5,49.5 C49.7,45.8 47.8,40.6 47.8,33.8 C47.8,26.8 49.6,21.4 53.1,17.7 C56.6,14 61.6,12.1 68.1,12.1 C74.3,12.1 79.1,13.7 82.5,17 C85.9,20.3 87.6,24.9 87.6,31.1 L87.6,37.5 L62.2,37.5 C62.3,39.8 63.1,41.6 64.7,42.9 C66.3,44.2 68.4,44.9 71.2,44.9 C73.7,44.9 76,44.7 78.1,44.2 C80.2,43.7 82.5,42.9 84.9,41.8 L84.9,52.1 C82.7,53.3 80.4,54 78,54.5 C75.6,54.8 72.8,55 69.5,55 L69.5,55 L69.5,55 Z M68.7,21.9 C67,21.9 65.6,22.4 64.5,23.5 C63.4,24.6 62.7,26.2 62.5,28.5 L74.7,28.5 C74.6,26.5 74.1,24.9 73,23.7 C71.9,22.5 70.5,21.9 68.7,21.9 L68.7,21.9 L68.7,21.9 Z" id="Shape"></path>
                                        <path d="M101.9,54.3 L86.2,12.9 L101,12.9 L108,37.4 C108,37.5 108.1,37.7 108.2,38 C108.3,38.3 108.3,38.6 108.4,39 C108.5,39.4 108.5,39.8 108.6,40.3 C108.7,40.8 108.7,41.2 108.7,41.6 L108.9,41.6 C108.9,40.3 109.1,39 109.6,37.5 L116.9,12.9 L131.7,12.9 L116,54.3 L101.9,54.3 L101.9,54.3 Z" id="Shape"></path>
                                        <path d="M147,54.3 L132.9,54.3 L132.9,0.9 L164.3,0.9 L164.3,12.5 L147,12.5 L147,22.7 L162.9,22.7 L162.9,34.3 L147,34.3 L147,54.3 L147,54.3 Z" id="Shape"></path>
                                        <path d="M187.5,55 C180.7,55 175.4,53.2 171.5,49.5 C167.7,45.8 165.8,40.6 165.8,33.8 C165.8,26.8 167.6,21.4 171.1,17.7 C174.6,14 179.6,12.1 186.1,12.1 C192.3,12.1 197.1,13.7 200.5,17 C203.9,20.3 205.6,24.9 205.6,31.1 L205.6,37.5 L180.2,37.5 C180.3,39.8 181.1,41.6 182.7,42.9 C184.3,44.2 186.4,44.9 189.2,44.9 C191.7,44.9 194,44.7 196.1,44.2 C198.2,43.7 200.4,42.9 202.9,41.8 L202.9,52.1 C200.7,53.3 198.4,54 196,54.5 C193.6,54.8 190.8,55 187.5,55 L187.5,55 L187.5,55 Z M186.7,21.9 C185,21.9 183.6,22.4 182.5,23.5 C181.4,24.6 180.7,26.2 180.5,28.5 L192.7,28.5 C192.6,26.5 192.1,24.9 191,23.7 C189.9,22.5 188.5,21.9 186.7,21.9 L186.7,21.9 L186.7,21.9 Z" id="Shape"></path>
                                        <path d="M240.9,41.6 C240.9,46 239.4,49.4 236.4,51.7 C233.4,54 229.1,55.1 223.5,55.1 C220.5,55.1 217.8,54.9 215.6,54.6 C213.3,54.3 211.1,53.7 208.7,52.8 L208.7,41.4 C210.9,42.4 213.3,43.2 215.9,43.8 C218.5,44.4 220.9,44.7 222.9,44.7 C226,44.7 227.5,44 227.5,42.6 C227.5,41.9 227.1,41.2 226.2,40.6 C225.3,40 222.8,38.9 218.7,37.3 C214.9,35.7 212.3,34 210.8,32 C209.3,30 208.5,27.5 208.5,24.5 C208.5,20.7 210,17.7 212.9,15.5 C215.8,13.3 220,12.3 225.4,12.3 C228.1,12.3 230.7,12.6 233,13.2 C235.4,13.8 237.8,14.7 240.4,15.8 L236.6,25 C234.7,24.2 232.7,23.4 230.6,22.8 C228.5,22.2 226.8,21.9 225.5,21.9 C223.2,21.9 222,22.5 222,23.6 C222,24.3 222.4,24.9 223.2,25.4 C224,25.9 226.4,26.9 230.2,28.5 C233.1,29.7 235.2,30.9 236.6,32 C238,33.1 239.1,34.5 239.7,36 C240.5,37.5 240.9,39.4 240.9,41.6 L240.9,41.6 L240.9,41.6 Z" id="Shape"></path>
                                        <path d="M264.4,43.7 C266.3,43.7 268.6,43.2 271.3,42.3 L271.3,52.7 C269.4,53.5 267.6,54.1 265.8,54.5 C264.1,54.9 262,55 259.7,55 C254.9,55 251.5,53.8 249.4,51.5 C247.3,49.1 246.2,45.5 246.2,40.7 L246.2,23.6 L241.2,23.6 L241.2,17.8 L247.5,13.3 L251.2,4.6 L260.5,4.6 L260.5,12.9 L270.6,12.9 L270.6,23.6 L260.5,23.6 L260.5,39.7 C260.6,42.4 261.9,43.7 264.4,43.7 L264.4,43.7 L264.4,43.7 Z" id="Shape"></path>
                                    </g>
                                    <g id="Group" transform="translate(0.000000, 1.000000)">
                                        <path d="M24.3,23.3 L47.4,23.3 L47.4,52.1 C41.1,54.2 34.2,55.3 26.7,55.3 C18.5,55.3 12.1,52.9 7.6,48.1 C3.1,43.3 0.9,36.5 0.9,27.7 C0.9,19.1 3.4,12.4 8.3,7.6 C13.2,2.8 20.1,0.4 29,0.4 C32.4,0.4 35.5,0.7 38.5,1.4 C41.5,2 44.1,2.8 46.3,3.8 L41.7,15.1 C37.9,13.2 33.6,12.3 29,12.3 C24.8,12.3 21.5,13.7 19.2,16.4 C16.9,19.1 15.7,23.1 15.7,28.2 C15.7,33.2 16.7,37 18.8,39.6 C20.9,42.2 23.9,43.5 27.8,43.5 C29.9,43.5 31.9,43.3 33.7,42.9 L33.7,34.5 L24.2,34.5 L24.3,23.3 L24.3,23.3 Z" id="Shape"></path>
                                        <path d="M99.1,26.7 C99.1,35.6 96.6,42.5 91.7,47.3 C86.8,52.1 79.9,54.5 71,54.5 L53.7,54.5 L53.7,1 L72.2,1 C80.8,1 87.4,3.2 92.1,7.6 C96.8,12.1 99.1,18.4 99.1,26.7 L99.1,26.7 L99.1,26.7 Z M84.1,27.2 C84.1,22.3 83.1,18.7 81.2,16.3 C79.3,13.9 76.3,12.7 72.4,12.7 L68.2,12.7 L68.2,42.6 L71.4,42.6 C75.8,42.6 79,41.3 81.1,38.8 C83.1,36.4 84.1,32.5 84.1,27.2 L84.1,27.2 L84.1,27.2 Z" id="Shape"></path>
                                        <path d="M125.7,23.3 L148.8,23.3 L148.8,52.1 C142.5,54.2 135.7,55.3 128.1,55.3 C119.9,55.3 113.5,52.9 109,48.1 C104.5,43.3 102.3,36.5 102.3,27.7 C102.3,19.1 104.8,12.4 109.7,7.6 C114.6,2.8 121.5,0.4 130.4,0.4 C133.8,0.4 136.9,0.7 139.9,1.4 C142.9,2 145.5,2.8 147.7,3.8 L143.1,15.1 C139.2,13.2 135,12.3 130.4,12.3 C126.2,12.3 122.9,13.7 120.6,16.4 C118.3,19.1 117.1,23.1 117.1,28.2 C117.1,33.2 118.1,37 120.2,39.6 C122.3,42.2 125.3,43.5 129.2,43.5 C131.3,43.5 133.3,43.3 135.1,42.9 L135.1,34.5 L125.6,34.5 L125.7,23.3 L125.7,23.3 Z" id="Shape"></path>
                                    </g>
                                </g>
                            </g>
                            <path d="M51.4,108.8 L39.4,128.9 L60.9,144.2 L71.9,126 L51.4,92.1 C54.2,96.6 54.2,104.2 51.4,108.8 L51.4,108.8 L51.4,108.8 Z" id="Shape" fill="#168B58"></path>
                            <path d="M71.9,126 L60.9,144.2 L83.5,160.3 C85.8,155.6 85.7,148.9 83.1,144.6 L71.9,126 L71.9,126 Z" id="Shape" fill="#D7AB56"></path>
                        </g>
                        <text id="Córdoba" fill="#E6E6E5" sketch:type="MSTextLayer" font-family="Roboto" font-size="70" font-weight="420">
                            <tspan x="333" y="162">Córdoba</tspan>
                        </text>
                    </g>
                </g>
            </g>
        </g>
    </g>
</svg>