<?xml version="1.0" encoding="UTF-8" standalone="no"?>
<svg width="570px" height="234px" viewBox="0 0 570 234" version="1.1" xmlns="http://www.w3.org/2000/svg" xmlns:xlink="http://www.w3.org/1999/xlink" xmlns:sketch="http://www.bohemiancoding.com/sketch/ns">
    <!-- Generator: Sketch 3.3.2 (12043) - http://www.bohemiancoding.com/sketch -->
    <title>Slice 1</title>
    <desc>Created with Sketch.</desc>
    <defs></defs>
    <g id="Page-1" stroke="none" stroke-width="1" fill="none" fill-rule="evenodd" sketch:type="MSPage">
        <g id="spain1" sketch:type="MSLayerGroup" fill="#4A4A4A">
            <path d="M566.443,227.337 L554.846,227.337 L554.846,152.77 L560.841,132.257 C561.097,131.381 560.925,130.438 560.379,129.707 C559.831,128.978 558.973,128.549 558.062,128.549 L555.891,128.549 L555.891,91.698 L555.891,67.756 C555.891,66.157 554.595,64.861 552.997,64.861 L544.553,64.861 L544.553,63.889 C544.553,51.465 540.963,39.87 534.788,30.06 C534.658,29.706 534.455,29.372 534.181,29.079 C534.165,29.062 534.147,29.051 534.13,29.034 C528.622,20.646 521.192,13.638 512.467,8.63 C512.277,8.483 512.071,8.35 511.839,8.252 C511.818,8.242 511.792,8.239 511.77,8.23 C502.613,3.125 492.076,0.203 480.866,0.203 C469.886,0.203 459.545,2.996 450.516,7.91 C450.505,7.914 450.495,7.915 450.485,7.92 C450.266,8.013 450.072,8.135 449.89,8.27 C441.002,13.24 433.422,20.271 427.804,28.72 C427.63,28.926 427.489,29.144 427.38,29.38 C420.936,39.332 417.176,51.177 417.176,63.891 L417.176,64.863 L409.255,64.863 C407.656,64.863 406.359,66.159 406.359,67.759 L406.359,91.637 L406.359,128.553 L404.189,128.553 C403.277,128.553 402.418,128.983 401.874,129.71 C401.327,130.439 401.155,131.385 401.41,132.26 L407.407,152.774 L407.407,227.34 L358.386,227.34 L358.386,152.774 L364.382,132.26 C364.638,131.385 364.466,130.44 363.92,129.71 C363.372,128.981 362.514,128.553 361.603,128.553 L359.432,128.553 L359.432,91.701 L359.432,67.759 C359.432,66.16 358.136,64.864 356.537,64.864 L348.094,64.864 L348.094,63.892 C348.094,51.468 344.504,39.873 338.328,30.063 C338.199,29.709 337.996,29.375 337.722,29.082 C337.705,29.065 337.689,29.054 337.672,29.037 C332.163,20.649 324.734,13.641 316.008,8.633 C315.817,8.487 315.612,8.353 315.379,8.255 C315.358,8.245 315.332,8.242 315.312,8.233 C306.153,3.128 295.617,0.206 284.408,0.206 C273.426,0.206 263.086,2.999 254.059,7.913 C254.049,7.917 254.037,7.918 254.024,7.923 C253.808,8.016 253.613,8.138 253.432,8.273 C244.545,13.243 236.964,20.274 231.345,28.723 C231.173,28.929 231.031,29.147 230.922,29.383 C224.479,39.335 220.719,51.18 220.719,63.894 L220.719,64.866 L212.798,64.866 C211.199,64.866 209.902,66.162 209.902,67.762 L209.902,91.64 L209.902,128.555 L207.731,128.555 C206.821,128.555 205.963,128.985 205.416,129.713 C204.868,130.442 204.698,131.387 204.952,132.264 L210.949,152.776 L210.949,227.343 L161.932,227.343 L161.932,152.776 L167.928,132.264 C168.183,131.387 168.011,130.444 167.465,129.713 C166.918,128.984 166.06,128.555 165.149,128.555 L162.978,128.555 L162.978,91.704 L162.978,67.762 C162.978,66.163 161.683,64.867 160.082,64.867 L151.639,64.867 L151.639,63.895 C151.639,51.471 148.05,39.876 141.873,30.066 C141.742,29.712 141.541,29.378 141.267,29.085 C141.25,29.068 141.231,29.057 141.217,29.04 C135.709,20.652 128.279,13.644 119.553,8.636 C119.362,8.489 119.157,8.356 118.925,8.258 C118.903,8.248 118.878,8.245 118.856,8.237 C109.698,3.132 99.161,0.21 87.951,0.21 C76.969,0.21 66.629,3.003 57.602,7.917 C57.59,7.921 57.579,7.922 57.567,7.927 C57.349,8.02 57.156,8.142 56.975,8.277 C48.088,13.247 40.507,20.278 34.888,28.727 C34.714,28.933 34.573,29.151 34.465,29.387 C28.02,39.339 24.262,51.184 24.262,63.898 L24.262,64.87 L16.341,64.87 C14.741,64.87 13.445,66.166 13.445,67.766 L13.445,91.644 L13.445,128.56 L11.274,128.56 C10.363,128.56 9.504,128.99 8.958,129.717 C8.412,130.446 8.24,131.392 8.495,132.267 L14.491,152.781 L14.491,227.347 L2.896,227.347 C1.297,227.347 0,228.643 0,230.242 C0,231.843 1.295,233.138 2.896,233.138 L566.443,233.138 C568.042,233.138 569.339,231.842 569.339,230.242 C569.338,228.633 568.041,227.337 566.443,227.337 L566.443,227.337 Z M439.312,129.709 C438.766,128.98 437.909,128.551 436.998,128.551 L434.828,128.551 L434.828,67.757 C434.828,66.158 433.531,64.862 431.932,64.862 L431.872,64.862 L430.764,64.862 C440.788,47.574 459.484,35.913 480.866,35.913 C502.249,35.913 520.942,47.574 530.967,64.862 L530.321,64.862 C528.721,64.862 527.425,66.157 527.425,67.757 L527.425,91.698 L527.425,128.551 L525.254,128.551 C524.343,128.551 523.485,128.981 522.938,129.709 C522.391,130.438 522.22,131.383 522.475,132.258 L528.471,152.77 L528.471,227.338 L433.782,227.338 L433.782,152.77 L439.78,132.258 C440.032,131.381 439.862,130.436 439.312,129.709 L439.312,129.709 Z M242.857,129.709 C242.311,128.98 241.453,128.551 240.54,128.551 L238.37,128.551 L238.37,67.757 C238.37,66.158 237.075,64.862 235.475,64.862 L235.415,64.862 L234.308,64.862 C244.332,47.574 263.027,35.913 284.409,35.913 C305.792,35.913 324.484,47.574 334.509,64.862 L333.863,64.862 C332.263,64.862 330.967,66.157 330.967,67.757 L330.967,91.698 L330.967,128.551 L328.796,128.551 C327.884,128.551 327.026,128.981 326.481,129.709 C325.934,130.438 325.762,131.383 326.017,132.258 L332.014,152.77 L332.014,227.338 L237.323,227.338 L237.323,152.77 L243.32,132.258 C243.576,131.381 243.404,130.436 242.857,129.709 L242.857,129.709 Z M46.401,129.709 C45.855,128.98 44.995,128.551 44.084,128.551 L41.913,128.551 L41.913,67.757 C41.913,66.158 40.618,64.862 39.018,64.862 L38.957,64.862 L37.85,64.862 C47.874,47.574 66.57,35.913 87.952,35.913 C109.334,35.913 128.027,47.574 138.052,64.862 L137.406,64.862 C135.807,64.862 134.511,66.157 134.511,67.757 L134.511,91.698 L134.511,128.551 L132.341,128.551 C131.429,128.551 130.571,128.981 130.024,129.709 C129.478,130.438 129.306,131.383 129.562,132.258 L135.558,152.77 L135.558,227.338 L40.867,227.338 L40.867,152.77 L46.863,132.258 C47.119,131.381 46.947,130.436 46.401,129.709 L46.401,129.709 Z" id="Shape" sketch:type="MSShapeGroup"></path>
        </g>
        <path d="M534.262,226.979 L534.262,155.248 L549.056,155.248 L549.056,226.979 L534.262,226.979 L534.262,226.979 Z" id="Path" fill="#EDD18C" sketch:type="MSShapeGroup"></path>
        <path d="M554.2,134.34 L549.78,149.456 L533.537,149.456 L529.117,134.34 L530.32,134.34 L552.998,134.34 L554.2,134.34 L554.2,134.34 Z" id="Path" fill="#9B9B9B" sketch:type="MSShapeGroup"></path>
        <path d="M533.214,128.55 L533.214,94.593 L550.102,94.593 L550.102,128.55 L533.214,128.55 L533.214,128.55 Z" id="Path" fill="#EDD18C" sketch:type="MSShapeGroup"></path>
        <path d="M550.102,70.651 L550.102,88.803 L533.214,88.803 L533.214,70.651 L550.102,70.651 L550.102,70.651 Z" id="Path" fill="#9B9B9B" sketch:type="MSShapeGroup"></path>
        <path d="M538.763,63.89 L538.763,64.862 L537.554,64.862 C533.612,57.173 528.157,50.383 521.579,44.893 L531.393,35.672 C536.08,44.026 538.763,53.648 538.763,63.89 L538.763,63.89 Z" id="Path" fill="#E74C3C" sketch:type="MSShapeGroup"></path>
        <path d="M512.045,15.144 C518.404,19.225 523.909,24.509 528.248,30.68 L516.897,41.344 C512.85,38.554 508.472,36.212 503.828,34.408 L512.045,15.144 L512.045,15.144 Z" id="Path" fill="#EDD18C" sketch:type="MSShapeGroup"></path>
        <path d="M483.76,6.064 C492.085,6.475 499.945,8.667 506.989,12.244 L498.32,32.564 C493.661,31.233 488.788,30.42 483.759,30.192 L483.759,6.064 L483.76,6.064 Z" id="Path" fill="#E74C3C" sketch:type="MSShapeGroup"></path>
        <path d="M477.97,6.064 L477.97,30.193 C473.178,30.409 468.527,31.157 464.066,32.379 L455.342,11.937 C462.231,8.539 469.883,6.465 477.97,6.064 L477.97,6.064 Z" id="Path" fill="#EDD18C" sketch:type="MSShapeGroup"></path>
        <path d="M450.258,14.774 L458.533,34.173 C453.724,35.981 449.195,38.355 445.016,41.213 L433.79,30.242 C438.214,24.074 443.81,18.809 450.258,14.774 L450.258,14.774 Z" id="Path" fill="#E74C3C" sketch:type="MSShapeGroup"></path>
        <path d="M422.966,63.89 C422.966,53.462 425.751,43.677 430.598,35.217 L440.336,44.737 C433.673,50.253 428.156,57.101 424.177,64.863 L422.966,64.863 L422.966,63.89 L422.966,63.89 Z" id="Path" fill="#EDD18C" sketch:type="MSShapeGroup"></path>
        <path d="M412.151,70.651 L428.976,70.651 L428.976,88.738 L412.151,88.738 L412.151,70.651 L412.151,70.651 Z" id="Path" fill="#9B9B9B" sketch:type="MSShapeGroup"></path>
        <path d="M412.151,94.528 L429.038,94.528 L429.038,128.549 L412.151,128.549 L412.151,94.528 L412.151,94.528 Z" id="Path" fill="#EDD18C" sketch:type="MSShapeGroup"></path>
        <path d="M409.255,134.34 L431.932,134.34 L433.135,134.34 L428.716,149.456 L412.472,149.456 L408.052,134.34 L409.255,134.34 L409.255,134.34 Z" id="Path" fill="#9B9B9B" sketch:type="MSShapeGroup"></path>
        <path d="M427.991,155.247 L427.991,226.978 L413.195,226.978 L413.195,155.247 L427.991,155.247 L427.991,155.247 Z" id="Path" fill="#EDD18C" sketch:type="MSShapeGroup"></path>
        <path d="M337.805,226.979 L337.805,155.248 L352.6,155.248 L352.6,226.979 L337.805,226.979 L337.805,226.979 Z" id="Path" fill="#EDD18C" sketch:type="MSShapeGroup"></path>
        <path d="M357.743,134.34 L353.323,149.456 L337.079,149.456 L332.659,134.34 L333.863,134.34 L356.54,134.34 L357.743,134.34 L357.743,134.34 Z" id="Path" fill="#9B9B9B" sketch:type="MSShapeGroup"></path>
        <path d="M336.758,128.55 L336.758,94.593 L353.645,94.593 L353.645,128.55 L336.758,128.55 L336.758,128.55 Z" id="Path" fill="#EDD18C" sketch:type="MSShapeGroup"></path>
        <path d="M353.644,70.651 L353.644,88.803 L336.757,88.803 L336.757,70.651 L353.644,70.651 L353.644,70.651 Z" id="Path" fill="#9B9B9B" sketch:type="MSShapeGroup"></path>
        <path d="M342.306,63.89 L342.306,64.862 L341.095,64.862 C337.155,57.173 331.699,50.383 325.122,44.893 L334.935,35.672 C339.622,44.026 342.306,53.648 342.306,63.89 L342.306,63.89 Z" id="Path" fill="#E74C3C" sketch:type="MSShapeGroup"></path>
        <path d="M315.59,15.144 C321.948,19.225 327.454,24.509 331.792,30.68 L320.443,41.344 C316.394,38.554 312.016,36.212 307.373,34.408 L315.59,15.144 L315.59,15.144 Z" id="Path" fill="#EDD18C" sketch:type="MSShapeGroup"></path>
        <path d="M287.302,6.064 C295.628,6.475 303.488,8.667 310.531,12.244 L301.862,32.564 C297.202,31.233 292.33,30.42 287.3,30.192 L287.302,6.064 L287.302,6.064 Z" id="Path" fill="#E74C3C" sketch:type="MSShapeGroup"></path>
        <path d="M281.513,6.064 L281.513,30.193 C276.721,30.409 272.067,31.157 267.607,32.379 L258.885,11.937 C265.774,8.539 273.427,6.465 281.513,6.064 L281.513,6.064 Z" id="Path" fill="#EDD18C" sketch:type="MSShapeGroup"></path>
        <path d="M253.803,14.774 L262.078,34.173 C257.27,35.981 252.74,38.355 248.562,41.213 L237.336,30.242 C241.757,24.074 247.353,18.809 253.803,14.774 L253.803,14.774 Z" id="Path" fill="#E74C3C" sketch:type="MSShapeGroup"></path>
        <path d="M226.509,63.89 C226.509,53.462 229.295,43.677 234.14,35.217 L243.878,44.737 C237.216,50.253 231.698,57.101 227.718,64.863 L226.509,64.863 L226.509,63.89 L226.509,63.89 Z" id="Path" fill="#EDD18C" sketch:type="MSShapeGroup"></path>
        <path d="M215.694,70.651 L232.521,70.651 L232.521,88.738 L215.694,88.738 L215.694,70.651 L215.694,70.651 Z" id="Path" fill="#9B9B9B" sketch:type="MSShapeGroup"></path>
        <path d="M215.694,94.528 L232.581,94.528 L232.581,128.549 L215.694,128.549 L215.694,94.528 L215.694,94.528 Z" id="Path" fill="#EDD18C" sketch:type="MSShapeGroup"></path>
        <path d="M212.798,134.34 L235.476,134.34 L236.679,134.34 L232.259,149.456 L216.014,149.456 L211.594,134.34 L212.798,134.34 L212.798,134.34 Z" id="Path" fill="#9B9B9B" sketch:type="MSShapeGroup"></path>
        <path d="M231.535,155.247 L231.535,226.978 L216.739,226.978 L216.739,155.247 L231.535,155.247 L231.535,155.247 Z" id="Path" fill="#EDD18C" sketch:type="MSShapeGroup"></path>
        <path d="M141.347,226.979 L141.347,155.248 L156.142,155.248 L156.142,226.979 L141.347,226.979 L141.347,226.979 Z" id="Path" fill="#EDD18C" sketch:type="MSShapeGroup"></path>
        <path d="M161.287,134.34 L156.867,149.456 L140.623,149.456 L136.203,134.34 L137.407,134.34 L160.084,134.34 L161.287,134.34 L161.287,134.34 Z" id="Path" fill="#9B9B9B" sketch:type="MSShapeGroup"></path>
        <path d="M140.301,128.55 L140.301,94.593 L157.188,94.593 L157.188,128.55 L140.301,128.55 L140.301,128.55 Z" id="Path" fill="#EDD18C" sketch:type="MSShapeGroup"></path>
        <path d="M157.188,70.651 L157.188,88.803 L140.301,88.803 L140.301,70.651 L157.188,70.651 L157.188,70.651 Z" id="Path" fill="#9B9B9B" sketch:type="MSShapeGroup"></path>
        <path d="M19.236,70.651 L36.062,70.651 L36.062,88.738 L19.236,88.738 L19.236,70.651 L19.236,70.651 Z" id="Path" fill="#9B9B9B" sketch:type="MSShapeGroup"></path>
        <path d="M19.236,94.528 L36.123,94.528 L36.123,128.549 L19.236,128.549 L19.236,94.528 L19.236,94.528 Z" id="Path" fill="#EDD18C" sketch:type="MSShapeGroup"></path>
        <path d="M16.342,134.34 L39.018,134.34 L40.222,134.34 L35.802,149.456 L19.557,149.456 L15.137,134.34 L16.342,134.34 L16.342,134.34 Z" id="Path" fill="#9B9B9B" sketch:type="MSShapeGroup"></path>
        <path d="M35.077,155.247 L35.077,226.978 L20.283,226.978 L20.283,155.247 L35.077,155.247 L35.077,155.247 Z" id="Path" fill="#EDD18C" sketch:type="MSShapeGroup"></path>
        <path d="M145.85,63.89 L145.85,64.862 L144.641,64.862 C140.699,57.173 135.245,50.383 128.667,44.893 L138.482,35.672 C143.166,44.026 145.85,53.648 145.85,63.89 L145.85,63.89 Z" id="Path" fill="#E74C3C" sketch:type="MSShapeGroup"></path>
        <path d="M119.134,15.144 C125.49,19.225 130.998,24.509 135.336,30.68 L123.987,41.344 C119.941,38.554 115.562,36.212 110.916,34.408 L119.134,15.144 L119.134,15.144 Z" id="Path" fill="#EDD18C" sketch:type="MSShapeGroup"></path>
        <path d="M90.846,6.064 C99.171,6.475 107.031,8.667 114.075,12.244 L105.407,32.564 C100.747,31.233 95.874,30.42 90.848,30.192 L90.848,6.064 L90.846,6.064 L90.846,6.064 Z" id="Path" fill="#E74C3C" sketch:type="MSShapeGroup"></path>
        <path d="M85.056,6.064 L85.056,30.193 C80.264,30.409 75.611,31.157 71.151,32.379 L62.429,11.937 C69.317,8.539 76.97,6.465 85.056,6.064 L85.056,6.064 Z" id="Path" fill="#EDD18C" sketch:type="MSShapeGroup"></path>
        <path d="M57.346,14.774 L65.621,34.173 C60.814,35.981 56.282,38.355 52.106,41.213 L40.879,30.242 C45.3,24.074 50.896,18.809 57.346,14.774 L57.346,14.774 Z" id="Path" fill="#E74C3C" sketch:type="MSShapeGroup"></path>
        <path d="M30.053,63.89 C30.053,53.462 32.839,43.677 37.684,35.217 L47.422,44.737 C40.759,50.253 35.242,57.101 31.262,64.863 L30.053,64.863 L30.053,63.89 L30.053,63.89 Z" id="Path" fill="#EDD18C" sketch:type="MSShapeGroup"></path>
    </g>
</svg>